# xmcd CD database file
#
# Track frame offsets:
#	150
#	45679
#	67128
#	80399
#	126838
#	150148
#	177444
#	206675
#	235782
#	255688
#	268771
#	289942
#	306784
#	319424
#
# Disc length: 4466 seconds
#
# Revision: 0
# Processed by: cddbd v1.5.2PL0 Copyright (c) Steve Scherf et al.
# Submitted via: CDex 1.70
#
DISCID=cb11700e
DTITLE=CHRIS BARBER - Memories Of My Trip CD-2
DYEAR=2011
DGENRE=Blues
TTITLE0=St. Louis Blues  - Missouri Special  - St. Louis Blues
TTITLE1=High Sociaty
TTITLE2=Rock Candy
TTITLE3=Georgia On My Mind
TTITLE4=Rose Room
TTITLE5=C-Jam Blues
TTITLE6=Tea Party Blues
TTITLE7=Jack Teagarden Blues
TTITLE8=Tailgate Boogie
TTITLE9=Winin' Boy Blues
TTITLE10=On The Sunny Side Of The Street
TTITLE11=Blues Stay Away From Me
TTITLE12=Dallas Rag
TTITLE13='Til The Nex Time I'm In Town
EXTD=YEAR: 2011
EXTT0=
EXTT1=
EXTT2=
EXTT3=
EXTT4=
EXTT5=
EXTT6=
EXTT7=
EXTT8=
EXTT9=
EXTT10=
EXTT11=
EXTT12=
EXTT13=
PLAYORDER=
